<?xml version="1.0" encoding="UTF-8" standalone="no"?>
<svg
   viewbox="0 0 275 346"
   width="217.58"
   height="209.09399"
   fill="#822ef5"
   version="1.1"
   id="svg26"
   sodipodi:docname="cults-3d-logo.svg"
   inkscape:export-filename="cults-3d-logo.svg"
   inkscape:export-xdpi="96"
   inkscape:export-ydpi="96"
   xmlns:inkscape="http://www.inkscape.org/namespaces/inkscape"
   xmlns:sodipodi="http://sodipodi.sourceforge.net/DTD/sodipodi-0.dtd"
   xmlns="http://www.w3.org/2000/svg"
   xmlns:svg="http://www.w3.org/2000/svg">
  <defs
     id="defs30" />
  <sodipodi:namedview
     id="namedview28"
     pagecolor="#ffffff"
     bordercolor="#000000"
     borderopacity="0.25"
     inkscape:showpageshadow="2"
     inkscape:pageopacity="0.0"
     inkscape:pagecheckerboard="0"
     inkscape:deskcolor="#d1d1d1"
     showgrid="false" />
  <path
     d="M 33.613,71.34 C 13.375,84.823 0,107.836 0,133.926 c 0,41.448 33.725,75.168 75.167,75.168 12.086,0 23.497,-2.879 33.62,-7.964 l -0.021,-0.011 -0.13,-0.068 c 10.161,5.134 21.63,8.043 33.771,8.043 41.45,0 75.173,-33.72 75.173,-75.168 0,-26.113 -13.396,-49.149 -33.663,-62.626 C 181.858,31.635 148.944,0 108.777,0 68.671,0 35.8,31.542 33.647,71.118 Z m 17.165,-8.664 c 5.779,-26.71 29.585,-46.787 58.001,-46.787 32.728,0 59.353,26.626 59.353,59.354 0,17.274 -7.424,32.845 -19.238,43.702 l -8.281,-4.747 -15.918,9.123 25.565,14.658 c 16.324,-10.833 28.196,-27.854 32.24,-47.693 11.799,10.846 19.203,26.394 19.203,43.642 0,32.695 -26.601,59.293 -59.297,59.293 -28.389,0 -52.215,-20.051 -57.995,-46.732 l 8.458,-4.879 V 123.365 L 67.3,138.059 c 1.14,20.876 10.864,39.506 25.658,52.447 l -0.007,-0.017 c -5.621,1.775 -11.583,2.731 -17.785,2.731 -32.696,0 -59.292,-26.598 -59.292,-59.293 0,-32.696 26.595,-59.298 59.292,-59.298 6.207,0 12.187,0.962 17.807,2.734 l 0.037,9.626 15.859,9.063 V 66.72 c -10,-5.084 -21.58,-7.965 -33.661,-7.965 -8.555,0 -16.797,1.443 -24.466,4.09 z"
     id="path18"
     sodipodi:nodetypes="csscccsscscccsscccccssccccccsssccccscc"
     style="fill:#ffffff;fill-opacity:1" />
</svg>
